<svg viewBox="0 0 36 36" xmlns="http://www.w3.org/2000/svg"><path fill="#EEE" d="M0 13h36v10H0z"/><path fill="#007A3D" d="M32 5H4a4 4 0 00-4 4v4h36V9a4 4 0 00-4-4z"/><path fill="#141414" d="M32 31H4a4 4 0 01-4-4v-4h36v4a4 4 0 01-4 4z"/><path fill="#CE1126" d="M10.2 15.184l-.632 1.947H7.521l1.657 1.201-.633 1.947 1.654-1.203 1.656 1.203-.632-1.947 1.656-1.201h-2.047zm7.8 0l-.633 1.947H15.32l1.657 1.201-.633 1.947L18 19.076l1.656 1.203-.633-1.947 1.657-1.201h-2.047zm7.8 0l-.632 1.947h-2.047l1.656 1.201-.632 1.947 1.656-1.203 1.654 1.203-.633-1.947 1.657-1.201h-2.047z"/></svg>